<svg xmlns="http://www.w3.org/2000/svg" width="13" height="13" fill="none" viewBox="0 0 13 13"><path fill="#00162e" d="M9.75 1.083h-6.5c-.9 0-1.625.72-1.625 1.609v5.91a1.62 1.62 0 0 0 1.625 1.614h.412c.428 0 .845.168 1.148.471l.926.915a1.09 1.09 0 0 0 1.528 0l.926-.915c.303-.303.72-.471 1.148-.471h.412c.9 0 1.625-.726 1.625-1.614v-5.91c0-.888-.726-1.609-1.625-1.609M6.5 3.006a1.058 1.058 0 0 1 .038 2.113h-.081a1.054 1.054 0 0 1-1.019-1.057A1.066 1.066 0 0 1 6.5 3.006m1.49 4.951c-.818.547-2.162.547-2.98 0-.72-.477-.72-1.267 0-1.75.824-.547 2.167-.547 2.98 0 .72.482.72 1.268 0 1.75"/></svg>