<svg xmlns="http://www.w3.org/2000/svg" width="105" height="105" fill="none" viewBox="0 0 105 105"><path fill="#ffce00" d="M94.203 62.064c5.51-23.258-8.88-46.58-32.138-52.089-23.26-5.509-46.58 8.88-52.09 32.138C4.466 65.37 18.855 88.692 42.114 94.2s46.58-8.879 52.089-32.137"/><path fill="#562912" d="M71.832 65.521H32.334a2.116 2.116 0 0 1 0-4.234h39.498a2.116 2.116 0 0 1 0 4.234M74.727 44.73a4.569 4.569 0 1 1-9.137-.001 4.569 4.569 0 0 1 9.137.001M38.575 44.73a4.57 4.57 0 1 1-9.14-.002 4.57 4.57 0 0 1 9.14.002"/></svg>