<svg xmlns="http://www.w3.org/2000/svg" width="243" height="5" fill="none" viewBox="0 0 243 5"><g clip-path="url(#a)"><path fill="#5465ff" fill-opacity=".1" fill-rule="evenodd" d="M321.266 0h-.002c-.054 2.657-2.212 4.794-4.867 4.794S311.585 2.657 311.531 0h-.003c-.054 2.657-2.212 4.794-4.866 4.794S301.85 2.657 301.795 0h-.002c-.055 2.657-2.213 4.794-4.867 4.794S292.114 2.657 292.06 0h-.002c-.055 2.657-2.213 4.794-4.867 4.794S282.379 2.657 282.324 0h-.001c-.055 2.657-2.213 4.794-4.867 4.794S272.644 2.657 272.589 0h-.002c-.054 2.657-2.212 4.794-4.866 4.794S262.909 2.657 262.854 0h-.002c-.055 2.657-2.213 4.794-4.867 4.794S253.173 2.657 253.119 0h-.002c-.055 2.657-2.213 4.794-4.867 4.794S243.438 2.657 243.383 0h-.002c-.054 2.657-2.212 4.794-4.867 4.794S233.702 2.657 233.648 0h-.002c-.055 2.657-2.213 4.794-4.867 4.794S223.967 2.657 223.913 0h-.002c-.055 2.657-2.213 4.794-4.867 4.794S214.232 2.657 214.178 0h-.002c-.055 2.657-2.213 4.794-4.867 4.794S204.497 2.657 204.443 0h-.003c-.054 2.657-2.212 4.794-4.866 4.794-2.655 0-4.813-2.137-4.867-4.794h-.003c-.054 2.657-2.212 4.794-4.866 4.794S185.026 2.657 184.971 0h-.002c-.054 2.657-2.212 4.794-4.866 4.794S175.291 2.657 175.236 0h-.002c-.054 2.657-2.212 4.794-4.866 4.794S165.556 2.657 165.501 0h-.002c-.054 2.657-2.212 4.794-4.866 4.794-2.655 0-4.813-2.137-4.867-4.794h-.002c-.054 2.657-2.212 4.794-4.867 4.794S146.085 2.657 146.031 0h-.003c-.054 2.657-2.212 4.794-4.866 4.794S136.35 2.657 136.295 0h-.002c-.054 2.657-2.212 4.794-4.866 4.794S126.615 2.657 126.56 0h-.002c-.055 2.657-2.213 4.794-4.867 4.794S116.879 2.657 116.824 0h-.001c-.055 2.657-2.213 4.794-4.867 4.794S107.144 2.657 107.089 0h-.002c-.054 2.657-2.212 4.794-4.866 4.794S97.409 2.657 97.354 0h-.002c-.055 2.657-2.213 4.794-4.867 4.794S87.673 2.657 87.62 0h-.002c-.055 2.657-2.213 4.794-4.867 4.794S77.938 2.657 77.883 0h-.002c-.054 2.657-2.212 4.794-4.867 4.794S68.203 2.657 68.149 0h-.002c-.055 2.657-2.213 4.794-4.867 4.794S58.467 2.657 58.413 0h-.002c-.055 2.657-2.213 4.794-4.867 4.794S48.732 2.657 48.678 0h-.003c-.054 2.657-2.212 4.794-4.866 4.794S38.997 2.657 38.942 0h-.002c-.054 2.657-2.212 4.794-4.866 4.794-2.655 0-4.813-2.137-4.867-4.794h-.002c-.054 2.657-2.212 4.794-4.867 4.794S19.526 2.657 19.472 0h-.003c-.054 2.657-2.212 4.794-4.866 4.794S9.79 2.657 9.736 0h-.002C9.68 2.657 7.522 4.794 4.868 4.794S.056 2.657 0 0H-1v5h333V0h-1.001c-.054 2.657-2.212 4.794-4.866 4.794-2.655 0-4.813-2.137-4.867-4.794" clip-rule="evenodd"/></g><defs><clipPath id="a"><path fill="#fff" d="M0 0h243v5H0z"/></clipPath></defs></svg>