<svg xmlns="http://www.w3.org/2000/svg" width="251" height="6" viewBox="0 0 251 6"><g clip-path="url(#a)"><circle cx="5.982" cy="5.982" r="5.982" transform="rotate(90 5.982 5.982)"/><circle cx="17.947" cy="5.982" r="5.982" transform="rotate(90 17.947 5.982)"/><circle cx="29.911" cy="5.982" r="5.982" transform="rotate(90 29.91 5.982)"/><circle cx="41.876" cy="5.982" r="5.982" transform="rotate(90 41.876 5.982)"/><circle cx="53.841" cy="5.982" r="5.982" transform="rotate(90 53.841 5.982)"/><circle cx="65.806" cy="5.982" r="5.982" transform="rotate(90 65.806 5.982)"/><circle cx="77.77" cy="5.982" r="5.982" transform="rotate(90 77.77 5.982)"/><circle cx="89.734" cy="5.982" r="5.982" transform="rotate(90 89.734 5.982)"/><circle cx="101.699" cy="5.982" r="5.982" transform="rotate(90 101.699 5.982)"/><circle cx="113.662" cy="5.982" r="5.982" transform="rotate(90 113.662 5.982)"/><circle cx="125.627" cy="5.982" r="5.982" transform="rotate(90 125.627 5.982)"/><circle cx="137.591" cy="5.982" r="5.982" transform="rotate(90 137.591 5.982)"/><circle cx="149.556" cy="5.982" r="5.982" transform="rotate(90 149.556 5.982)"/><circle cx="161.52" cy="5.982" r="5.982" transform="rotate(90 161.52 5.982)"/><circle cx="173.484" cy="5.982" r="5.982" transform="rotate(90 173.484 5.982)"/><circle cx="185.449" cy="5.982" r="5.982" transform="rotate(90 185.449 5.982)"/><circle cx="197.412" cy="5.982" r="5.982" transform="rotate(90 197.412 5.982)"/><circle cx="209.377" cy="5.982" r="5.982" transform="rotate(90 209.377 5.982)"/><circle cx="221.341" cy="5.982" r="5.982" transform="rotate(90 221.341 5.982)"/><circle cx="233.306" cy="5.982" r="5.982" transform="rotate(90 233.306 5.982)"/><circle cx="245.27" cy="5.982" r="5.982" transform="rotate(90 245.27 5.982)"/></g><defs><clipPath id="a"><path d="M0 0h251v6H0z"/></clipPath></defs></svg>