<svg xmlns="http://www.w3.org/2000/svg" width="87" height="87" fill="none" viewBox="0 0 87 87"><path fill="#ffce00" d="M86.555 43.278c0 23.902-19.376 43.277-43.278 43.277S0 67.18 0 43.278 19.375 0 43.277 0s43.278 19.375 43.278 43.278"/><path fill="#cc342f" d="M64.118 18.877c-7.06-13.457-20.12-3.915-17.833 6.143 1.806 7.902 10.478 19.116 10.478 19.116 1.25-.44 13.335-4.8 19.1-10.5 7.333-7.252 1.443-22.317-11.745-14.76M21.953 18.877c7.06-13.457 20.122-3.915 17.832 6.143-1.802 7.902-10.477 19.116-10.477 19.116-1.25-.44-13.335-4.8-19.1-10.5-7.331-7.252-1.441-22.317 11.745-14.76"/><path fill="#562912" d="M26.162 52.306c-1.258-.39-2.44.885-2.075 2.245 2.16 8.027 10.479 14.01 20.432 14.01 9.956 0 18.274-5.983 20.433-14.01.367-1.36-.817-2.635-2.075-2.245-5.52 1.711-11.754 2.674-18.358 2.674-6.6 0-12.835-.963-18.357-2.674"/><path fill="#cc342f" d="M44.519 60.4c-4.378 0-8.143 2.49-9.798 6.053 2.925 1.34 6.257 2.109 9.798 2.109 3.545 0 6.875-.77 9.798-2.11C52.66 62.89 48.9 60.4 44.519 60.4"/></svg>