<svg xmlns="http://www.w3.org/2000/svg" width="311" height="6" fill="none" viewBox="0 0 311 6"><path fill="#e5e8ea" d="M.333 3a2.667 2.667 0 1 0 5.334 0A2.667 2.667 0 0 0 .333 3m305 0a2.667 2.667 0 1 0 5.334 0 2.667 2.667 0 0 0-5.334 0M3 3.5h1.495v-1H3zm4.485 0h2.99v-1h-2.99zm5.98 0h2.99v-1h-2.99zm5.981 0h2.99v-1h-2.99zm5.98 0h2.99v-1h-2.99zm5.98 0h2.991v-1h-2.99zm5.981 0h2.99v-1h-2.99zm5.98 0h2.99v-1h-2.99zm5.981 0h2.99v-1h-2.99zm5.98 0h2.99v-1h-2.99zm5.98 0H64.3v-1h-2.99zm5.981 0h2.99v-1h-2.99zm5.98 0h2.99v-1h-2.99zm5.981 0h2.99v-1h-2.99zm5.98 0h2.99v-1h-2.99zm5.98 0h2.991v-1h-2.99zm5.981 0h2.99v-1h-2.99zm5.981 0h2.99v-1h-2.99zm5.98 0h2.99v-1h-2.99zm5.98 0h2.991v-1h-2.991zm5.981 0h2.99v-1h-2.99zm5.98 0h2.99v-1h-2.99zm5.981 0h2.99v-1h-2.99zm5.98 0h2.99v-1h-2.99zm5.98 0h2.99v-1h-2.99zm5.981 0h2.99v-1h-2.99zm5.98 0h2.99v-1h-2.99zm5.98 0h2.991v-1h-2.991zm5.981 0h2.99v-1h-2.99zm5.98 0h2.99v-1h-2.99zm5.981 0h2.99v-1h-2.99zm5.98 0h2.99v-1h-2.99zm5.98 0h2.99v-1h-2.99zm5.981 0h2.99v-1h-2.99zm5.98 0h2.99v-1h-2.99zm5.98 0h2.991v-1h-2.991zm5.981 0h2.99v-1h-2.99zm5.98 0h2.99v-1h-2.99zm5.981 0h2.99v-1h-2.99zm5.98 0h2.99v-1h-2.99zm5.98 0h2.991v-1h-2.991zm5.981 0h2.99v-1h-2.99zm5.98 0h2.99v-1h-2.99zm5.98 0h2.991v-1h-2.991zm5.981 0h2.99v-1h-2.99zm5.98 0h2.99v-1h-2.99zm5.981 0h2.99v-1h-2.99zm5.98 0h2.99v-1h-2.99zm5.98 0h2.991v-1h-2.991zm5.981 0h2.99v-1h-2.99zm5.98 0h2.99v-1h-2.99zm5.981 0H308v-1h-1.495z"/></svg>