<svg xmlns="http://www.w3.org/2000/svg" width="231" height="8" fill="none" viewBox="0 0 231 8"><path fill="#e5e8ea" d="M230.354 4.354a.5.5 0 0 0 0-.708L227.172.464a.501.501 0 0 0-.708.708L229.293 4l-2.829 2.828a.5.5 0 0 0 .708.708zM0 4.5h1.513v-1H0zm4.54 0h3.026v-1H4.539zm6.052 0h3.026v-1h-3.026zm6.053 0h3.026v-1h-3.026zm6.052 0h3.027v-1h-3.027zm6.053 0h3.026v-1H28.75zm6.053 0h3.026v-1h-3.026zm6.052 0h3.027v-1h-3.027zm6.053 0h3.026v-1h-3.026zm6.053 0h3.026v-1H52.96zm6.052 0h3.026v-1h-3.026zm6.053 0h3.026v-1h-3.026zm6.052 0h3.027v-1h-3.027zm6.053 0h3.026v-1h-3.026zm6.053 0h3.026v-1h-3.026zm6.052 0h3.027v-1h-3.027zm6.053 0h3.026v-1H95.33zm6.053 0h3.026v-1h-3.026zm6.052 0h3.026v-1h-3.026zm6.053 0h3.026v-1h-3.026zm6.052 0h3.027v-1h-3.027zm6.053 0h3.026v-1h-3.026zm6.053 0h3.026v-1h-3.026zm6.052 0h3.027v-1h-3.027zm6.053 0h3.026v-1h-3.026zm6.053 0h3.026v-1h-3.026zm6.052 0h3.027v-1h-3.027zm6.053 0h3.026v-1h-3.026zm6.053 0h3.026v-1h-3.026zm6.052 0h3.027v-1h-3.027zm6.053 0h3.026v-1h-3.026zm6.052 0h3.027v-1h-3.027zm6.053 0h3.026v-1h-3.026zm6.053 0h3.026v-1h-3.026zm6.052 0h3.027v-1h-3.027zm6.053 0h3.026v-1h-3.026zm6.053 0h3.026v-1h-3.026zm6.052 0h3.027v-1h-3.027zm6.053 0H230v-1h-1.513z"/></svg>