<svg xmlns="http://www.w3.org/2000/svg" width="18" height="14" fill="none" viewBox="0 0 18 14"><path fill="#00162e" fill-rule="evenodd" d="M2.25 0A2.2 2.2 0 0 0 .659.683 2.38 2.38 0 0 0 0 2.333V7c0 .619.237 1.212.659 1.65a2.2 2.2 0 0 0 1.591.683v-7H13.5c0-.619-.237-1.212-.659-1.65A2.2 2.2 0 0 0 11.25 0zM4.5 7c0-.619.237-1.212.659-1.65a2.2 2.2 0 0 1 1.591-.683h9a2.2 2.2 0 0 1 1.591.683C17.763 5.788 18 6.381 18 7v4.667c0 .619-.237 1.212-.659 1.65A2.2 2.2 0 0 1 15.75 14h-9a2.2 2.2 0 0 1-1.591-.683 2.38 2.38 0 0 1-.659-1.65zm6.75 4.667a2.2 2.2 0 0 0 1.591-.684 2.38 2.38 0 0 0 .659-1.65c0-.619-.237-1.212-.659-1.65A2.2 2.2 0 0 0 11.25 7a2.2 2.2 0 0 0-1.591.683A2.38 2.38 0 0 0 9 9.333c0 .62.237 1.213.659 1.65a2.2 2.2 0 0 0 1.591.684" clip-rule="evenodd"/></svg>