<svg xmlns="http://www.w3.org/2000/svg" width="24" height="24" fill="none" viewBox="0 0 24 24"><g clip-path="url(#a)"><mask id="b" width="24" height="24" x="0" y="0" maskUnits="userSpaceOnUse" style="mask-type:luminance"><path fill="#fff" d="M24 0H0v24h24z"/></mask><g stroke="#f58218" stroke-linecap="round" stroke-linejoin="round" stroke-miterlimit="10" stroke-width="1.3" mask="url(#b)"><path d="m6.375 15.797.049-.03a5.88 5.88 0 0 1 6.111.03h2.345a1.406 1.406 0 1 1-.002 2.813h-3.28 4.554a2.34 2.34 0 0 0 1.657-.686l3.039-3.04a1.406 1.406 0 1 1 1.989 1.99l-3.6 3.59a4.7 4.7 0 0 1-2.287 1.257 21.4 21.4 0 0 1-9.871-.123l-.704-.176M.75 13.922h5.625v9.375H.75zM12 8.203a1.875 1.875 0 1 1 0-3.75 1.875 1.875 0 0 1 0 3.75m4.688-1.875c0-.35-.041-.689-.114-1.017l1-.578-1.405-2.435-1.004.58a4.7 4.7 0 0 0-1.758-1.022V.703h-2.813v1.153a4.7 4.7 0 0 0-1.758 1.021l-1.004-.58-1.406 2.436 1 .578a4.7 4.7 0 0 0-.113 1.017c0 .35.041.69.114 1.017l-1.001.578 1.406 2.435 1.004-.58c.5.46 1.095.814 1.758 1.022v1.153h2.813V10.8a4.7 4.7 0 0 0 1.758-1.021l1.004.58 1.406-2.436-1.001-.578c.072-.328.114-.667.114-1.017"/></g></g><defs><clipPath id="a"><path fill="#fff" d="M0 0h24v24H0z"/></clipPath></defs></svg>