<svg xmlns="http://www.w3.org/2000/svg" width="24" height="24" fill="none" viewBox="0 0 24 24"><g clip-path="url(#a)"><path stroke="#f58218" stroke-linecap="round" stroke-linejoin="round" stroke-width="1.5" d="M10.271 11.476c2.98 0 5.396-2.345 5.396-5.238S13.251 1 10.271 1 4.875 3.345 4.875 6.238s2.416 5.238 5.396 5.238M1 21.953c0-4.055 4.155-7.334 9.27-7.334q.549 0 1.08.05"/><path fill="#f58218" d="M18.689 13.435c.084 0 .153.058.164.138l.123.967c.019.16.13.294.29.356a3.5 3.5 0 0 1 .942.514c.08.062.183.098.287.098a.5.5 0 0 0 .18-.036l.948-.38q.03-.01.065-.015c.058 0 .115.029.142.076l.689 1.13a.15.15 0 0 1-.043.204l-.822.583a.43.43 0 0 0-.176.413c.057.341.057.69 0 1.034a.42.42 0 0 0 .176.413l.822.583a.15.15 0 0 1 .043.203l-.69 1.131a.17.17 0 0 1-.14.08.14.14 0 0 1-.066-.015l-.945-.38a.5.5 0 0 0-.18-.037.46.46 0 0 0-.287.098 3.5 3.5 0 0 1-.94.515.45.45 0 0 0-.291.355l-.123.968a.163.163 0 0 1-.165.138h-1.38a.163.163 0 0 1-.165-.138l-.123-.968a.44.44 0 0 0-.29-.355 3.5 3.5 0 0 1-.942-.515.48.48 0 0 0-.466-.061l-.95.38a.3.3 0 0 1-.064.015.16.16 0 0 1-.142-.08l-.688-1.13a.15.15 0 0 1 .042-.204l.822-.583a.43.43 0 0 0 .176-.413 3.1 3.1 0 0 1 0-1.033.42.42 0 0 0-.176-.414l-.822-.583a.15.15 0 0 1-.042-.203l.688-1.131a.17.17 0 0 1 .142-.076q.033 0 .065.014l.949.38c.156.063.336.04.466-.06a3.5 3.5 0 0 1 .942-.515.44.44 0 0 0 .29-.356l.127-.964a.163.163 0 0 1 .164-.137zM18 19.85c1.079 0 1.951-.826 1.951-1.848S19.08 16.153 18 16.153s-1.951.827-1.951 1.849c.004 1.018.876 1.845 1.951 1.848m.689-6.85h-1.381c-.314 0-.582.225-.62.518l-.123.968a4 4 0 0 0-1.063.584l-.945-.381a.64.64 0 0 0-.785.246l-.688 1.131a.57.57 0 0 0 .164.769l.823.583c-.065.384-.065.78 0 1.164l-.823.583a.57.57 0 0 0-.164.769l.688 1.13a.644.644 0 0 0 .785.25l.945-.384c.321.247.68.443 1.063.584l.123.968a.61.61 0 0 0 .62.518h1.38a.62.62 0 0 0 .62-.518l.123-.968a4 4 0 0 0 1.063-.584l.946.381a.64.64 0 0 0 .784-.25l.689-1.131a.57.57 0 0 0-.165-.768l-.819-.577c.065-.384.065-.779 0-1.163l.823-.584a.57.57 0 0 0 .164-.768l-.688-1.13a.64.64 0 0 0-.785-.247l-.945.38a4 4 0 0 0-1.063-.583l-.123-.968A.62.62 0 0 0 18.69 13M18 19.415c-.823 0-1.492-.634-1.492-1.413 0-.78.67-1.414 1.492-1.414.823 0 1.492.634 1.492 1.414s-.666 1.413-1.492 1.413"/><path stroke="#f58218" stroke-width=".8" d="M15.792 15.41a.48.48 0 0 1-.466.062l-.95-.38a.14.14 0 0 0-.064-.015.17.17 0 0 0-.142.076l-.688 1.13a.15.15 0 0 0 .042.204l.822.583a.42.42 0 0 1 .176.413 3.1 3.1 0 0 0 0 1.034.43.43 0 0 1-.176.413l-.822.583a.15.15 0 0 0-.042.203l.688 1.131a.16.16 0 0 0 .142.08.3.3 0 0 0 .065-.015l.949-.38a.48.48 0 0 1 .466.061c.284.218.601.392.942.515a.44.44 0 0 1 .29.355l.123.968c.011.08.08.138.164.138h1.381a.163.163 0 0 0 .165-.138l.123-.968a.45.45 0 0 1 .29-.355 3.5 3.5 0 0 0 .941-.515.46.46 0 0 1 .287-.098c.062 0 .123.015.18.037l.945.38c.023.011.042.015.065.015a.17.17 0 0 0 .142-.08l.689-1.13a.15.15 0 0 0-.043-.204l-.822-.583a.42.42 0 0 1-.176-.413 3.1 3.1 0 0 0 0-1.033.43.43 0 0 1 .176-.414l.822-.583a.15.15 0 0 0 .043-.203l-.69-1.131a.16.16 0 0 0-.14-.076q-.037.005-.066.014l-.949.38a.5.5 0 0 1-.18.037.48.48 0 0 1-.286-.098 3.5 3.5 0 0 0-.942-.514.44.44 0 0 1-.29-.356l-.123-.967a.163.163 0 0 0-.164-.138l-1.374.004a.163.163 0 0 0-.164.137l-.127.964a.44.44 0 0 1-.29.356 3.5 3.5 0 0 0-.942.514Zm0 0-.29-.34m0 0a4 4 0 0 1 1.063-.584l.123-.968c.038-.293.306-.518.62-.518h1.38a.62.62 0 0 1 .624.522l.123.968c.382.141.742.337 1.063.583l.945-.38c.291-.12.628-.011.785.246l.688 1.131a.57.57 0 0 1-.164.768l-.823.584c.065.384.065.78 0 1.163l.819.577a.57.57 0 0 1 .165.768l-.69 1.13a.64.64 0 0 1-.783.251l-.946-.38a4 4 0 0 1-1.063.583l-.123.968a.62.62 0 0 1-.62.518h-1.38a.61.61 0 0 1-.62-.518l-.123-.968a4 4 0 0 1-1.063-.584l-.945.385a.644.644 0 0 1-.785-.25l-.688-1.131a.57.57 0 0 1 .164-.769l.823-.583a3.5 3.5 0 0 1 0-1.164l-.823-.583a.57.57 0 0 1-.164-.769l.688-1.13a.64.64 0 0 1 .785-.247zM18 19.85c1.079 0 1.951-.826 1.951-1.848S19.08 16.153 18 16.153s-1.951.827-1.951 1.849c.004 1.018.876 1.845 1.951 1.848Zm0-.435c-.823 0-1.492-.634-1.492-1.413 0-.78.67-1.414 1.492-1.414.823 0 1.492.634 1.492 1.414s-.666 1.413-1.492 1.413Z"/></g><defs><clipPath id="a"><path fill="#fff" d="M0 0h24v24H0z"/></clipPath></defs></svg>