<svg xmlns="http://www.w3.org/2000/svg" width="15" height="15" fill="none" viewBox="0 0 15 15"><path stroke="#ffc412" stroke-linecap="round" stroke-linejoin="round" stroke-width="1.5" d="m8.623 1.939 1.144 2.306c.156.321.572.63.923.688l2.073.348c1.326.223 1.638 1.192.682 2.15l-1.611 1.624c-.273.275-.423.806-.338 1.186l.461 2.012c.364 1.592-.474 2.208-1.872 1.376l-1.943-1.16c-.35-.21-.93-.21-1.287 0l-1.943 1.16c-1.391.832-2.236.21-1.872-1.376l.462-2.012c.084-.38-.065-.91-.338-1.186L1.552 7.43c-.95-.957-.644-1.926.682-2.15l2.073-.347c.345-.059.76-.367.917-.688L6.368 1.94c.624-1.252 1.638-1.252 2.255 0"/></svg>