<svg xmlns="http://www.w3.org/2000/svg" width="20" height="20" fill="none" viewBox="0 0 20 20"><g clip-path="url(#a)"><path fill="#00162e" d="m5.156 6.522-1.353.287-.006 4.45c0 .822.618 1.354 1.44 1.354.457 0 .79-.085.975-.185v-1.056c-.178.072-1.053.328-1.053-.49V8.905h1.053V7.725H5.16zM7.94 8.134l-.084-.409h-1.2v4.788H8.04V9.29c.329-.432.882-.347 1.06-.291V7.725c-.188-.066-.835-.187-1.16.41m2.885-2.259-1.394.297v1.131l1.394-.297zm-9.422 3.26c0-.216.181-.3.472-.304.422 0 .96.128 1.381.357V7.88a3.7 3.7 0 0 0-1.378-.253c-1.125 0-1.875.588-1.875 1.569 0 1.537 2.11 1.287 2.11 1.95 0 .256-.223.34-.532.34-.46 0-1.053-.19-1.519-.443v1.25a3.85 3.85 0 0 0 1.516.315c1.153 0 1.947-.493 1.947-1.493 0-1.653-2.122-1.357-2.122-1.982M20 10.174c0-1.422-.688-2.544-2.006-2.544-1.32 0-2.122 1.122-2.122 2.535 0 1.672.947 2.443 2.297 2.443.662 0 1.159-.15 1.537-.359v-1.044c-.378.19-.812.306-1.362.306-.541 0-1.016-.19-1.079-.84h2.716a10 10 0 0 0 .019-.497m-2.747-.525c0-.625.384-.888.731-.888.34 0 .703.263.703.888zm-3.528-2.019c-.544 0-.894.256-1.088.435l-.072-.344h-1.221v6.4l1.387-.294.003-1.569c.2.147.497.35.981.35.994 0 1.9-.725 1.9-2.487.004-1.613-.915-2.49-1.89-2.49m-.331 3.828c-.325 0-.52-.118-.654-.262l-.009-2.063c.144-.159.344-.275.663-.275.506 0 .856.57.856 1.294.003.747-.34 1.306-.856 1.306m-3.96 1.053h1.394V7.725H9.434z"/></g><defs><clipPath id="a"><path fill="#fff" d="M0 0h20v20H0z"/></clipPath></defs></svg>