<svg xmlns="http://www.w3.org/2000/svg" width="17" height="16" fill="none" viewBox="0 0 17 16"><g clip-path="url(#a)"><path fill="#f58218" d="m10.289 1.155 1.408 2.84c.191.394.703.774 1.135.846l2.552.428c1.632.274 2.016 1.467.84 2.645l-1.984 2c-.336.339-.52.992-.416 1.46l.568 2.476c.448 1.96-.584 2.718-2.304 1.694l-2.391-1.428c-.432-.258-1.144-.258-1.584 0L5.72 15.544c-1.712 1.024-2.752.258-2.304-1.694l.568-2.476c.104-.468-.08-1.121-.416-1.46l-1.983-2c-1.168-1.178-.792-2.371.84-2.645l2.551-.428c.424-.072.936-.452 1.128-.847l1.408-2.839c.768-1.54 2.016-1.54 2.776 0"/></g><defs><clipPath id="a"><path fill="#fff" d="M.906 0h16v16h-16z"/></clipPath></defs></svg>