<svg xmlns="http://www.w3.org/2000/svg" width="172" height="5" fill="none" viewBox="0 0 172 5"><path fill="#5465ff" d="M.491 2.266a2.075 2.075 0 1 0 4.15 0 2.075 2.075 0 0 0-4.15 0m167.326 0a2.075 2.075 0 1 0 4.15 0 2.075 2.075 0 0 0-4.15 0m-165.25.389h1.161v-.779H2.566zm3.485 0h2.324v-.779H6.052zm4.648 0h2.324v-.779H10.7zm4.648 0h2.324v-.779h-2.324zm4.648 0h2.324v-.779h-2.324zm4.648 0h2.324v-.779h-2.324zm4.648 0h2.324v-.779h-2.324zm4.648 0h2.324v-.779H33.94zm4.648 0h2.324v-.779h-2.324zm4.648 0h2.324v-.779h-2.324zm4.648 0h2.324v-.779h-2.324zm4.648 0h2.324v-.779h-2.324zm4.648 0h2.324v-.779H57.18zm4.648 0h2.324v-.779h-2.324zm4.648 0H68.8v-.779h-2.324zm4.648 0h2.324v-.779h-2.324zm4.648 0h2.324v-.779h-2.324zm4.647 0h2.325v-.779h-2.325zm4.648 0h2.325v-.779h-2.325zm4.648 0h2.324v-.779h-2.324zm4.648 0h2.324v-.779h-2.324zm4.648 0h2.324v-.779h-2.324zm4.648 0h2.324v-.779h-2.324zm4.648 0h2.324v-.779h-2.324zm4.648 0h2.324v-.779h-2.324zm4.648 0h2.324v-.779h-2.324zm4.648 0h2.324v-.779h-2.324zm4.648 0h2.324v-.779h-2.324zm4.648 0h2.324v-.779h-2.324zm4.648 0h2.324v-.779h-2.324zm4.648 0h2.324v-.779h-2.324zm4.648 0h2.324v-.779h-2.324zm4.648 0h2.324v-.779h-2.324zm4.648 0h2.324v-.779h-2.324zm4.648 0h2.324v-.779h-2.324zm4.648 0h2.324v-.779h-2.324zm4.648 0h1.161v-.779h-1.161z"/></svg>