<svg xmlns="http://www.w3.org/2000/svg" width="20" height="20" fill="none" viewBox="0 0 20 20"><path fill="#00162e" d="m7.593 6.885-2.618 6.247H3.267L1.978 8.146c-.078-.307-.145-.42-.384-.548C1.206 7.387.564 7.189 0 7.066l.038-.181h2.75a.75.75 0 0 1 .745.637l.681 3.615 1.682-4.252zm6.695 4.208c.006-1.65-2.28-1.74-2.265-2.477.005-.224.219-.463.685-.523a3.05 3.05 0 0 1 1.595.28l.283-1.325a4.3 4.3 0 0 0-1.512-.278c-1.597 0-2.722.85-2.732 2.066-.01.899.803 1.4 1.415 1.7.63.306.842.502.839.776-.004.42-.502.604-.967.611-.812.013-1.283-.219-1.66-.394l-.292 1.369c.377.173 1.074.325 1.796.331 1.698 0 2.809-.838 2.814-2.136m4.217 2.039H20l-1.304-6.247h-1.38a.74.74 0 0 0-.688.458l-2.425 5.789H15.9l.338-.934h2.073zm-1.802-2.214.85-2.345.49 2.345zm-6.8-4.033-1.336 6.247H6.95l1.337-6.247z"/></svg>