<svg xmlns="http://www.w3.org/2000/svg" width="13" height="13" fill="none" viewBox="0 0 13 13"><path fill="#00162e" d="M7.583 8.667c0 .959-.417 1.825-1.083 2.416a3.2 3.2 0 0 1-2.167.834 3.253 3.253 0 0 1-3.25-3.25c0-1.003.46-1.9 1.176-2.496.233-.194.57-.073.721.19A4.06 4.06 0 0 0 5.428 8.25q.51.146 1.072.146.335 0 .652-.052c.216-.035.431.103.431.323"/><path fill="#00162e" d="M9.75 4.333a3.246 3.246 0 0 1-3.25 3.25A3.26 3.26 0 0 1 3.478 5.53 3.253 3.253 0 0 1 6.5 1.083a3.253 3.253 0 0 1 3.249 3.25M11.917 8.667a3.253 3.253 0 0 1-4.096 3.139c-.33-.09-.39-.498-.19-.774.494-.68.765-1.506.765-2.365 0-.184-.016-.369-.043-.542a.24.24 0 0 1 .123-.247 4.04 4.04 0 0 0 1.544-1.516c.152-.263.489-.385.722-.19a3.24 3.24 0 0 1 1.175 2.495"/></svg>