<svg xmlns="http://www.w3.org/2000/svg" width="89" height="89" fill="none" viewBox="0 0 89 89"><path fill="#ffce00" d="M45.667 87.723c23.892-.665 42.722-20.572 42.058-44.463S67.153.539 43.26 1.203C19.368 1.868.539 21.774 1.203 45.666s20.572 42.721 44.464 42.057"/><path fill="#261f11" d="M52.02 26.575c-2.765.921-6.187 1.071-7.553 1.097-1.364-.025-4.803-.176-7.564-1.097-5.264-1.754-13.73-2.86-20.186-2.709-4.78.117-9.728.76-12.811 1.38a2.467 2.467 0 0 0-1.922 2.976l.329 1.414c.193.824.83 1.432 1.627 1.715.41.147.807.415.985.897.553 1.487 3.548 10.324 5.17 13.59 1.329 2.672 4.928 4.964 13.295 4.996 11.907.048 16.032-7.826 17.925-12.913.198-.53.498-1.549.77-2.536.389-1.413 1.245-2.804 1.63-3.004.225-.114.493-.21.75-.21.265 0 .53.096.758.21.38.2 1.22 1.591 1.614 3.004.27.987.566 2.005.766 2.536 1.892 5.087 6.017 12.961 17.923 12.913 8.368-.032 11.972-2.324 13.297-4.997 1.62-3.265 4.613-12.102 5.174-13.589.177-.482.572-.75.984-.897.797-.283 1.433-.89 1.626-1.715l.33-1.415a2.47 2.47 0 0 0-1.924-2.977c-3.082-.619-8.032-1.262-12.81-1.379-6.459-.15-14.922.956-20.183 2.71"/><path fill="#483d23" d="M50.048 34.466c.25 5.767 5.867 11.312 11.123 12.584 7.728 1.872 13.54.205 16.836-6.898.993-2.143 3.117-6.812 2.98-9.303-.237-4.326-5.731-3.566-9.237-3.654-.375-.008-22.046-.618-21.702 7.271M39.093 34.466c-.25 5.767-5.866 11.312-11.124 12.584-7.727 1.872-13.54.205-16.835-6.898-.992-2.143-3.117-6.812-2.981-9.303.237-4.326 5.73-3.566 9.237-3.654.375-.008 22.046-.618 21.703 7.271"/><path fill="#562912" d="M21.9 60.013c-1.282 0-2.167 1.23-1.826 2.467 2.264 8.253 12.052 14.466 23.817 14.466 11.836 0 21.673-6.292 23.859-14.622.308-1.176-.647-2.311-1.864-2.311z"/><path fill="#fff" d="M43.888 63.246c6.421 0 12.31-1.214 16.981-3.234H26.903c4.673 2.02 10.562 3.234 16.985 3.234"/><path fill="#cc342f" d="M44.295 72.451c-3.412 0-6.481 1.32-8.655 3.423a31.9 31.9 0 0 0 8.25 1.072 31.7 31.7 0 0 0 8.876-1.258c-2.163-1.998-5.158-3.237-8.471-3.237"/></svg>