<svg xmlns="http://www.w3.org/2000/svg" width="22" height="22" fill="none" viewBox="0 0 22 22"><path fill="#fff" d="M12.114 17.661c.02-2.019-.493-3.66-1.144-3.667s-1.195 1.625-1.215 3.644.492 3.662 1.144 3.668c.65.006 1.195-1.625 1.215-3.645M8.336 17.203c1.109-1.688 1.566-3.346 1.022-3.704-.545-.357-1.885.721-2.993 2.41-1.108 1.687-1.566 3.345-1.021 3.703.544.357 1.884-.721 2.992-2.41M5.403 14.78c1.845-.82 3.126-1.968 2.861-2.563s-1.975-.412-3.82.409c-1.845.82-3.126 1.968-2.862 2.563.265.595 1.975.412 3.82-.408M8.043 10.549c.1-.644-1.439-1.415-3.434-1.722s-3.695-.034-3.794.61c-.099.643 1.439 1.414 3.435 1.72 1.996.308 3.694.035 3.793-.608M8.76 9.015c.43-.488-.446-1.967-1.96-3.305-1.513-1.337-3.089-2.025-3.52-1.537-.432.487.446 1.967 1.959 3.304 1.513 1.338 3.089 2.026 3.52 1.538M10.187 8.12c.626-.178.689-1.897.139-3.84S8.822.905 8.196 1.083c-.627.177-.69 1.896-.14 3.84.55 1.942 1.504 3.374 2.13 3.196M14.062 4.982c.588-1.931.56-3.651-.063-3.84s-1.605 1.222-2.193 3.154-.56 3.651.063 3.841 1.605-1.223 2.193-3.155M16.83 7.593c1.54-1.308 2.445-2.77 2.023-3.266-.421-.497-2.01.16-3.55 1.468-1.539 1.308-2.445 2.77-2.023 3.266.422.497 2.011-.16 3.55-1.468M17.746 11.287c2.001-.268 3.554-1.008 3.468-1.654-.087-.645-1.78-.951-3.78-.684-2.002.268-3.555 1.009-3.469 1.654.087.646 1.78.952 3.78.684M20.328 15.374c.276-.59-.982-1.762-2.81-2.62-1.83-.856-3.536-1.073-3.812-.483s.982 1.762 2.81 2.62c1.829.856 3.535 1.073 3.812.483M16.482 19.725c.551-.347.127-2.014-.948-3.723s-2.393-2.814-2.945-2.468c-.55.347-.127 2.014.948 3.723s2.394 2.815 2.945 2.468"/></svg>