<svg xmlns="http://www.w3.org/2000/svg" width="335" height="6" fill="none" viewBox="0 0 335 6"><g fill="#fff" stroke="#e5e8ea" clip-path="url(#a)"><circle cx="5.979" cy="5.982" r="5.482" transform="rotate(90 5.979 5.982)"/><circle cx="17.948" cy="5.982" r="5.482" transform="rotate(90 17.948 5.982)"/><circle cx="29.909" cy="5.982" r="5.482" transform="rotate(90 29.909 5.982)"/><circle cx="41.877" cy="5.982" r="5.482" transform="rotate(90 41.877 5.982)"/><circle cx="53.838" cy="5.982" r="5.482" transform="rotate(90 53.838 5.982)"/><circle cx="65.807" cy="5.982" r="5.482" transform="rotate(90 65.807 5.982)"/><circle cx="77.768" cy="5.982" r="5.482" transform="rotate(90 77.768 5.982)"/><circle cx="89.737" cy="5.982" r="5.482" transform="rotate(90 89.737 5.982)"/><circle cx="101.698" cy="5.982" r="5.482" transform="rotate(90 101.698 5.982)"/><circle cx="113.658" cy="5.982" r="5.482" transform="rotate(90 113.658 5.982)"/><circle cx="125.627" cy="5.982" r="5.482" transform="rotate(90 125.627 5.982)"/><circle cx="137.588" cy="5.982" r="5.482" transform="rotate(90 137.588 5.982)"/><circle cx="149.557" cy="5.982" r="5.482" transform="rotate(90 149.557 5.982)"/><circle cx="161.518" cy="5.982" r="5.482" transform="rotate(90 161.518 5.982)"/><circle cx="173.487" cy="5.982" r="5.482" transform="rotate(90 173.487 5.982)"/><circle cx="185.448" cy="5.982" r="5.482" transform="rotate(90 185.448 5.982)"/><circle cx="197.408" cy="5.982" r="5.482" transform="rotate(90 197.408 5.982)"/><circle cx="209.377" cy="5.982" r="5.482" transform="rotate(90 209.377 5.982)"/><circle cx="221.338" cy="5.982" r="5.482" transform="rotate(90 221.338 5.982)"/><circle cx="233.307" cy="5.982" r="5.482" transform="rotate(90 233.307 5.982)"/><circle cx="245.268" cy="5.982" r="5.482" transform="rotate(90 245.268 5.982)"/><circle cx="257.237" cy="5.982" r="5.482" transform="rotate(90 257.237 5.982)"/><circle cx="269.198" cy="5.982" r="5.482" transform="rotate(90 269.198 5.982)"/><circle cx="281.158" cy="5.982" r="5.482" transform="rotate(90 281.158 5.982)"/><circle cx="293.127" cy="5.982" r="5.482" transform="rotate(90 293.127 5.982)"/><circle cx="305.088" cy="5.982" r="5.482" transform="rotate(90 305.088 5.982)"/><circle cx="317.057" cy="5.982" r="5.482" transform="rotate(90 317.057 5.982)"/><circle cx="329.018" cy="5.982" r="5.482" transform="rotate(90 329.018 5.982)"/></g><defs><clipPath id="a"><path fill="#fff" d="M0 0h335v6H0z"/></clipPath></defs></svg>