<svg xmlns="http://www.w3.org/2000/svg" width="60" height="60" fill="none" viewBox="0 0 60 60"><rect width="60" height="60" fill="#f58218" fill-opacity=".1" rx="8.495"/><mask id="a" width="60" height="60" x="0" y="0" maskUnits="userSpaceOnUse" style="mask-type:alpha"><rect width="60" height="60" fill="#5465ff" rx="8.495"/></mask><g mask="url(#a)"><rect width="62.958" height="41.866" x="-10.455" y="48.133" fill="#ffead7" rx="8.495" transform="rotate(-18.538 -10.455 48.133)"/><path fill="#f58218" d="m39.035 27.923-3.048-1.769c2.937-2.503-.011-7.175-3.537-5.584l-.968.412-.123-1.068c-.11-1.202-.734-2.058-1.557-2.559-1.824-1.06-4.605-.334-5.05 2.314l-3.06-1.758a2.21 2.21 0 0 0-3.036.812l-1.112 1.925a1.114 1.114 0 0 0 .411 1.524l8.666 5.005 1.668-2.892 1.925 1.113-1.669 2.892 8.666 5.006c.534.278 1.223.122 1.524-.412l1.112-1.924a2.22 2.22 0 0 0-.812-3.037m-10.712-6.586c-.968.279-1.747-.756-1.257-1.613.289-.534.99-.712 1.524-.411.856.5.69 1.79-.267 2.024m5.773 3.338c-.957.278-1.735-.757-1.246-1.613.3-.534.99-.712 1.513-.412.856.5.69 1.791-.267 2.025m3.682 9.878c.456 0 .89-.156 1.257-.423v3.893c0 1.235-.99 2.225-2.225 2.225H19.012a2.225 2.225 0 0 1-2.225-2.225V28.012h9.066l.946.556v9.455h2.224v-8.176l7.643 4.405c.333.2.7.3 1.112.3"/><path fill="#f58218" fill-opacity=".2" d="m56.52 7.948.348-1.02c.925.732 2.15-.429 1.464-1.391l-.18-.266.312-.1a1 1 0 0 0 .675-.619c.209-.61-.174-1.4-.994-1.376l.345-1.022a.675.675 0 0 0-.424-.862l-.643-.219a.34.34 0 0 0-.432.214l-.986 2.895.966.328-.219.643-.966-.328L54.8 7.72c-.051.176.036.374.214.432l.643.22a.68.68 0 0 0 .862-.424m1.337-3.603a.336.336 0 0 1 .409-.472.34.34 0 0 1 .214.432c-.1.287-.496.313-.623.04m-.657 1.93c-.14-.271.123-.566.409-.47a.34.34 0 0 1 .213.429c-.099.286-.496.313-.623.04m-2.743 1.69c.027.136.1.257.202.351l-1.167.231a.677.677 0 0 1-.8-.534l-1.057-5.335a.68.68 0 0 1 .535-.8l3.001-.594L55.71 4l-.111.317-2.834.562.132.666 2.45-.485-.866 2.552a.65.65 0 0 0-.024.352M10.19 11.807 9.944 10.5c1.439.222 2.047-1.772.723-2.388l-.356-.175.275-.298c.315-.328.406-.717.346-1.076-.146-.782-1.04-1.397-1.906-.872l-.252-1.307a.834.834 0 0 0-.98-.667l-.824.156a.42.42 0 0 0-.334.494l.706 3.71L8.58 7.84l.156.824L7.5 8.9l.706 3.71c.053.221.267.38.494.334l.824-.157a.837.837 0 0 0 .667-.98m-.76-4.684a.415.415 0 0 1 .151-.757.42.42 0 0 1 .493.334c.069.368-.341.638-.644.423m.47 2.472c-.315-.205-.212-.683.154-.754a.42.42 0 0 1 .49.33c.069.369-.341.64-.644.424m-1.914 3.487c.113.13.264.216.43.255l-1.111.96a.837.837 0 0 1-1.184-.087L1.732 9.125a.84.84 0 0 1 .087-1.184l2.86-2.468 2.236 2.59.074.407-2.701 2.331.548.636L7.172 9.42l.626 3.27a.8.8 0 0 0 .188.391M50.303 50.55l.625.148c-.381.592.38 1.253.912.79l.147-.123.078.18c.082.204.236.32.406.365.375.089.823-.184.76-.67l.628.146a.403.403 0 0 0 .487-.302l.094-.395a.203.203 0 0 0-.153-.244l-1.777-.418-.139.593-.395-.093.14-.593-1.778-.419c-.108-.02-.22.043-.244.152l-.093.395a.405.405 0 0 0 .302.488m2.217.586a.2.2 0 0 1 .305.216.204.204 0 0 1-.245.152c-.176-.042-.215-.277-.06-.368m-1.184-.279c.153-.099.343.041.303.216a.203.203 0 0 1-.243.152c-.176-.043-.215-.277-.06-.368m-1.163-1.532a.4.4 0 0 0-.197.14l-.205-.68a.404.404 0 0 1 .271-.505l3.11-.937a.406.406 0 0 1 .505.271l.527 1.75-1.584.476-.194-.047-.498-1.652-.388.117.43 1.429-1.567-.368a.4.4 0 0 0-.21.006M9.232 59.27l1.449.343c-.883 1.37.878 2.9 2.11 1.828l.342-.285.18.417c.19.473.547.743.94.845.868.207 1.904-.426 1.761-1.55l1.451.337a.933.933 0 0 0 1.13-.698l.215-.914a.47.47 0 0 0-.352-.566l-4.114-.969-.323 1.373-.914-.215.323-1.373-4.114-.969c-.25-.047-.51.1-.567.353l-.215.913a.937.937 0 0 0 .698 1.13m5.135 1.357a.465.465 0 0 1 .705.5.47.47 0 0 1-.566.352c-.408-.098-.498-.64-.14-.852m-2.741-.646c.353-.229.793.095.7.5a.47.47 0 0 1-.562.352c-.407-.098-.497-.64-.138-.852m-2.693-3.546a.9.9 0 0 0-.457.324l-.474-1.574c-.15-.5.13-1.02.628-1.17l7.198-2.17a.94.94 0 0 1 1.171.63l1.22 4.048-3.667 1.104-.45-.11-1.152-3.823-.9.271.997 3.307-3.628-.85a.9.9 0 0 0-.486.013"/></g></svg>