<svg xmlns="http://www.w3.org/2000/svg" width="100" height="100" fill="none" viewBox="0 0 100 100"><path fill="#ffce00" d="M56.417 92.308c23.6-3.78 39.67-25.975 35.89-49.575-3.778-23.6-25.974-39.67-49.574-35.89-23.6 3.778-39.67 25.974-35.89 49.574 3.778 23.6 25.974 39.67 49.574 35.89"/><path fill="#562912" d="M74.663 44.014c.449.277 1.04-.038 1.04-.565v-.013a5.72 5.72 0 0 0-5.716-5.718 5.72 5.72 0 0 0-5.715 5.718v.013c0 .527.591.842 1.04.565a8.86 8.86 0 0 1 4.676-1.326c1.715 0 3.316.486 4.674 1.326M33.855 44.014c.447.277 1.037-.038 1.04-.565v-.013a5.719 5.719 0 0 0-11.436 0v.013c.002.527.592.842 1.04.565a8.87 8.87 0 0 1 4.676-1.326 8.9 8.9 0 0 1 4.68 1.326M49.816 69.308c-7.243 0-14.41-2.8-19.663-7.684a2.116 2.116 0 1 1 2.882-3.1c4.479 4.163 10.595 6.55 16.781 6.55 5.965 0 11.924-2.244 16.349-6.157a2.116 2.116 0 1 1 2.804 3.172c-5.264 4.654-12.065 7.219-19.153 7.219"/></svg>