<svg xmlns="http://www.w3.org/2000/svg" width="15" height="15" fill="none" viewBox="0 0 15 15"><path fill="#ffc412" d="m8.582 2.2 1.1 2.218c.15.31.55.605.887.662l1.994.334c1.275.214 1.575 1.147.656 2.067l-1.55 1.562c-.262.265-.406.775-.325 1.14l.444 1.935c.35 1.531-.456 2.124-1.8 1.323l-1.869-1.115c-.337-.202-.894-.202-1.237 0l-1.87 1.115c-1.337.8-2.15.202-1.8-1.323l.445-1.934c.08-.366-.063-.876-.325-1.14L1.782 7.48c-.913-.92-.62-1.853.656-2.067l1.994-.334c.33-.057.73-.353.88-.662l1.1-2.218c.6-1.203 1.576-1.203 2.17 0"/></svg>