<svg xmlns="http://www.w3.org/2000/svg" width="20" height="20" fill="none" viewBox="0 0 20 20"><path fill="#00162e" fill-rule="evenodd" d="M17.583 6.67q-.07-.004-.15-.003h-2.104c-1.724 0-3.198 1.356-3.198 3.125s1.475 3.125 3.198 3.125h2.104q.08.001.152-.004a1.46 1.46 0 0 0 1.37-1.356q.005-.077.004-.154V8.18q0-.077-.003-.154a1.46 1.46 0 0 0-1.371-1.357zm-2.44 3.955c.443 0 .802-.373.802-.833s-.359-.834-.802-.834-.803.374-.803.834.359.833.803.833" clip-rule="evenodd"/><path fill="#00162e" fill-rule="evenodd" d="M17.432 14.167a.183.183 0 0 1 .184.231c-.167.594-.433 1.1-.859 1.525-.624.625-1.415.901-2.391 1.033-.95.127-2.163.127-3.694.127h-1.76c-1.532 0-2.746 0-3.695-.127-.976-.132-1.767-.409-2.391-1.032-.624-.624-.9-1.415-1.032-2.391-.127-.95-.127-2.163-.127-3.695v-.093c0-1.532 0-2.745.127-3.695.132-.977.408-1.767 1.032-2.392.624-.623 1.415-.9 2.391-1.031C6.167 2.5 7.38 2.5 8.912 2.5h1.76c1.531 0 2.744 0 3.694.127.976.132 1.767.409 2.391 1.032.426.427.692.933.859 1.526a.183.183 0 0 1-.184.232h-2.104c-2.364 0-4.447 1.866-4.447 4.375s2.083 4.375 4.447 4.375zM4.791 5.833a.625.625 0 0 0 0 1.25h3.333a.625.625 0 0 0 0-1.25z" clip-rule="evenodd"/></svg>