<svg xmlns="http://www.w3.org/2000/svg" width="22" height="22" fill="none" viewBox="0 0 22 22"><path fill="#808b97" d="M19.333 6.398c-.78-.861-2.081-1.292-3.97-1.292h-.22v-.037c0-1.54 0-3.446-3.446-3.446h-1.394c-3.446 0-3.446 1.915-3.446 3.446v.046h-.22c-1.898 0-3.19.43-3.97 1.293-.907 1.008-.88 2.365-.788 3.29l.01.065.068.725c.015.15.096.286.221.368.222.145.577.373.792.492.128.083.266.156.403.23 1.568.861 3.291 1.439 5.042 1.723.083.862.458 1.87 2.466 1.87s2.402-1 2.466-1.888a15.4 15.4 0 0 0 5.307-1.907c.055-.028.092-.055.138-.083.358-.202.73-.451 1.07-.696a.5.5 0 0 0 .2-.346l.013-.113.046-.43c.009-.055.009-.101.018-.165.073-.926.055-2.191-.806-3.145m-7.334 6.28c0 .971 0 1.118-1.127 1.118s-1.128-.174-1.128-1.11v-1.154H12zM8.168 5.106v-.037c0-1.558 0-2.136 2.135-2.136h1.394c2.136 0 2.136.587 2.136 2.136v.046H8.168z"/><path fill="#808b97" d="M19.068 12.621a.51.51 0 0 1 .724.503l-.322 3.55c-.192 1.833-.944 3.703-4.977 3.703H7.507c-4.034 0-4.785-1.87-4.978-3.694l-.306-3.363a.508.508 0 0 1 .715-.506c1.052.474 2.908 1.277 4.076 1.587a.58.58 0 0 1 .37.315c.56 1.176 1.763 1.802 3.496 1.802 1.715 0 2.933-.65 3.496-1.83a.58.58 0 0 1 .37-.315c1.24-.33 3.22-1.23 4.32-1.752"/></svg>